<svg width="1440" height="48" viewBox="0 0 1440 48" fill="none" xmlns="http://www.w3.org/2000/svg">
<path d="M0 0L10 6.2359C20 12.3077 40 25.0256 60 25.7641C80 26.6667 100 16 120 15.0974C140 14.359 160 22.9744 180 27.5692C200 32 220 32 240 28.4308C260 25.0256 280 17.641 300 15.0974C320 12.3077 340 14.359 360 18.6667C380 22.9744 400 30.359 420 26.6667C440 22.9744 460 9.02564 480 8C500 6.97436 520 19.6923 540 23.0974C560 26.6667 580 21.3333 600 23.0974C620 25.0256 640 33.641 660 36.4308C680 38.9744 700 35.6923 720 31.0974C740 26.6667 760 21.3333 780 19.5692C800 17.641 820 19.6923 840 20.4308C860 21.3333 880 21.3333 900 21.3333C920 21.3333 940 21.3333 960 23.0974C980 25.0256 1000 28.3077 1020 28.4308C1040 28.3077 1060 25.0256 1080 25.7641C1100 26.6667 1120 32 1140 29.3333C1160 26.6667 1180 16 1200 12.4308C1220 9.02564 1240 12.3077 1260 11.5692C1280 10.6667 1300 5.33333 1320 6.2359C1340 6.97436 1360 14.359 1380 16C1400 17.641 1420 14.359 1430 12.4308L1440 10.6667V48H1430C1420 48 1400 48 1380 48C1360 48 1340 48 1320 48C1300 48 1280 48 1260 48C1240 48 1220 48 1200 48C1180 48 1160 48 1140 48C1120 48 1100 48 1080 48C1060 48 1040 48 1020 48C1000 48 980 48 960 48C940 48 920 48 900 48C880 48 860 48 840 48C820 48 800 48 780 48C760 48 740 48 720 48C700 48 680 48 660 48C640 48 620 48 600 48C580 48 560 48 540 48C520 48 500 48 480 48C460 48 440 48 420 48C400 48 380 48 360 48C340 48 320 48 300 48C280 48 260 48 240 48C220 48 200 48 180 48C160 48 140 48 120 48C100 48 80 48 60 48C40 48 20 48 10 48H0V0Z" fill="url(#paint0_linear)"/>
<defs>
<linearGradient id="paint0_linear" x1="0" y1="48" x2="0" y2="0" gradientUnits="userSpaceOnUse">
<stop stop-color="#1F1F1F"/>
<stop offset="0.500524" stop-color="#F64B29"/>
</linearGradient>
</defs>
</svg>
