<svg width="512" height="512" viewBox="0 0 512 512" fill="none" xmlns="http://www.w3.org/2000/svg">
<rect x="2.5" y="2.5" width="507" height="507" rx="17.5" stroke="black" stroke-width="5"/>
<path d="M41.5573 210.568C44.9878 190.911 53.1802 173.665 66.1344 158.829C79.2805 143.72 98.2278 133.791 122.976 129.042C147.725 124.294 166.758 127.291 180.077 138.035C193.358 148.549 202.387 168.547 207.164 198.029L151.584 211.543C148.86 194.729 145.35 184.003 141.054 179.365C136.758 174.727 130.486 173.2 122.236 174.782C109.404 177.245 101.816 185.825 99.4718 200.525C97.3572 215.18 98.5765 236.557 103.13 264.658C107.683 292.758 115.129 312.466 125.469 323.781C135.771 334.866 150.432 338.584 169.452 334.935C181.139 332.692 197.078 326.072 217.269 315.073L234.435 348.827C211.739 366.244 187.215 377.481 160.862 382.537C95.5533 395.069 56.1065 359.414 42.5214 275.575C38.6772 251.851 38.3559 230.182 41.5573 210.568Z" fill="black"/>
<path d="M478.324 152.636L438.688 397.245L385.41 387.022L350.566 267.41L342.631 226.701L340.113 226.931L341.421 271.355L324.57 375.348L268.198 364.532L307.834 119.922L361.8 130.277L394.693 248.803L403.619 294.333L405.849 293.692L405.165 247.606L422.296 141.885L478.324 152.636Z" fill="black"/>
</svg>
