<svg width="192" height="192" viewBox="0 0 192 192" fill="none" xmlns="http://www.w3.org/2000/svg">
<path d="M6.85398 76.5567C8.56239 67.4763 12.4111 59.4557 18.4 52.4949C24.478 45.4058 33.1461 40.6399 44.4041 38.197C55.6621 35.7542 64.2686 36.935 70.2237 41.7396C76.1636 46.4387 80.1018 55.5458 82.0383 69.0611L56.733 75.8585C55.6286 68.1506 54.1206 63.252 52.209 61.1628C50.2974 59.0735 47.4653 58.436 43.7126 59.2503C37.8751 60.517 34.3678 64.5442 33.1908 71.3319C32.1179 78.0969 32.5044 87.9203 34.3502 100.802C36.1959 113.684 39.4188 122.674 44.0187 127.773C48.6034 132.766 55.2218 134.324 63.8738 132.446C69.1901 131.293 76.4685 128.08 85.709 122.809L93.2291 138.161C82.8032 146.411 71.5964 151.837 59.6087 154.438C29.9001 160.885 12.2922 144.891 6.78519 106.457C5.22688 95.5812 5.24981 85.6145 6.85398 76.5567Z" fill="white"/>
<path d="M191.821 49.838L175.754 161.973L151.518 156.714L134.788 101.316L130.874 82.5024L129.734 82.5817L130.672 103.035L123.842 150.708L98.1984 145.144L114.266 33.0094L138.814 38.3362L154.651 93.2142L159.052 114.256L160.058 113.984L159.39 92.7727L166.334 44.3077L191.821 49.838Z" fill="#F64B29"/>
</svg>
