<svg width="80" height="80" viewBox="0 0 80 80" fill="none" xmlns="http://www.w3.org/2000/svg">
<mask id="mask0" mask-type="alpha" maskUnits="userSpaceOnUse" x="0" y="0" width="80" height="80">
<path d="M80 40C80 17.9086 62.0914 0 40 0C17.9086 0 0 17.9086 0 40C0 62.0914 17.9086 80 40 80C62.0914 80 80 62.0914 80 40Z" fill="white"/>
</mask>
<g mask="url(#mask0)">
<path d="M80 0H0V80H80V0Z" fill="#F53A14"/>
<path d="M104.54 1.92041L49.0695 -17.1796C41.4106 -19.8167 33.0641 -15.7459 30.4269 -8.08698L11.3269 47.3834C8.68975 55.0423 12.7606 63.3889 20.4195 66.026L75.8899 85.126C83.5488 87.7632 91.8954 83.6923 94.5325 76.0334L113.633 20.563C116.27 12.9041 112.199 4.55757 104.54 1.92041Z" fill="#087E8B"/>
<path d="M42.72 36.6799C46.7621 39.5701 51.1518 40.2653 55.8891 38.7657" stroke="white" stroke-width="2.22222" stroke-linecap="round"/>
<path d="M36.7762 24.489C36.9682 23.2768 36.3868 22.1774 35.4777 22.0334C34.5685 21.8894 33.6759 22.7554 33.4839 23.9676C33.2919 25.1798 33.8733 26.2792 34.7824 26.4232C35.6916 26.5671 36.5842 25.7012 36.7762 24.489Z" fill="white"/>
<path d="M67.5042 29.356C67.6962 28.1438 67.1149 27.0444 66.2057 26.9004C65.2966 26.7564 64.4039 27.6223 64.2119 28.8345C64.0199 30.0467 64.6013 31.1461 65.5105 31.2901C66.4196 31.4341 67.3122 30.5681 67.5042 29.356Z" fill="white"/>
</g>
</svg>
